:SAMPLES-PER-SECOND 30
:FULLY-SPECIFIED
:DEGREES
62
root  35.02643615 36.54719375 -14.52807479 10.22877979 1.009416342 2.743736506
lowerback  -8.502981186 0.9264389277 0.7199323773
upperback  -3.646600008 0.8705919981 -3.0183599
thorax  1.050459981 0.2552179992 -3.448040009
lowerneck  -14.77639961 3.468470097 3.018779993
upperneck  11.40410042 3.284840107 4.270619869
head  5.857759953 2.018300056 1.166679978
lclavicle  0 -4.497500157e-015 -2.743230041e-014
lhumerus  -44.76549911 27.43869972 68.98699951
lradius  -0.4850978851 -6.507048965e-006 27.86899948
lwrist  4.824992743e-007 -3.790274832e-007 -30.54170036
lhand  -3.513342771e-031 -36.86009979 -10.71850014
lfingers  90 7.125020027 -90
lthumb  94.80658722 -25.55498505 101.0303116
rclavicle  0 -4.497500157e-015 -2.743230041e-014
rhumerus  -14.61149979 5.237350464 -76.66120148
rradius  -5.16745672e-007 2.214343908e-008 89.35040283
rwrist  1.129822067e-006 0.001802438172 -173.1320038
rhand  -2.986042784e-031 0.5684530139 -8.159930229
rfingers  -90 -7.125020027 -90
rthumb  -86.18038177 -7.73182869 -63.60709
rfemur  -12.31874561 14.75061607 13.6004715
rtibia  -0.3837694526 0.7896999121 19.67961311
rfoot  -0.01701916941 -18.83348083 -39.51879501
rtoes  4.098838806 19.59233856 -102.0629044
lfemur  -9.671847343 -16.98292542 -18.62159538
ltibia  2.474452972 1.471750259 14.5339489
lfoot  0.3339644969 -28.0497551 33.30962372
ltoes  -8.551522255 -18.14764404 -115.770401
63
root  35.02650524 36.5475572 -14.52453043 10.24055481 1.041460037 2.742696285
lowerback  -8.556288719 0.9442530274 0.7957980037
upperback  -3.64623642 0.8873810172 -3.091130018
thorax  1.092740059 0.2617819905 -3.565010071
lowerneck  -14.74289989 3.480989933 3.101069927
upperneck  11.3107996 3.281490088 4.306499958
head  5.823850155 2.019750118 1.162420034
lclavicle  0 -4.497500157e-015 -2.743230041e-014
lhumerus  -44.78789902 27.54439926 68.75440216
lradius  -0.4854415655 -6.507048965e-006 27.81010246
lwrist  4.824992743e-007 -3.790274832e-007 -30.88669968
lhand  -3.510720762e-031 -36.85240173 -10.75119972
lfingers  90 7.125020027 -90
lthumb  94.80989075 -25.5873127 101.0250626
rclavicle  0 -4.497500157e-015 -2.743230041e-014
rhumerus  -12.92780018 5.8105793 -76.33860016
rradius  -5.16745672e-007 2.214343908e-008 89.75759888
rwrist  1.129822067e-006 0.001802438172 -173.5350037
rhand  -2.990934596e-031 0.780978024 -8.086440086
rfingers  -90 -7.125020027 -90
rthumb  -86.10597229 -7.810948849 -63.39585495
rfemur  -12.3101902 14.74748421 13.6176424
rtibia  -0.385646075 0.7866357565 19.65793228
rfoot  -0.01871950924 -18.83350563 -39.56083679
rtoes  4.113641739 19.58935165 -102.107048
lfemur  -9.657278061 -16.9419117 -18.61651802
ltibia  2.512506723 1.501077056 14.49564838
lfoot  0.3504583538 -28.08295822 33.27615738
ltoes  -8.578738213 -18.13513374 -115.857811
64
root  35.02641513 36.54795669 -14.52044239 10.24803734 1.081989527 2.740807056
lowerback  -8.583490372 0.9610860348 0.8272286057
upperback  -3.642060518 0.9057719707 -3.124710083
thorax  1.104470015 0.2696039975 -3.615989923
lowerneck  -14.70049953 3.484189987 3.110080004
upperneck  11.21809959 3.276190281 4.382160187
head  5.78662014 2.020090103 1.18204999
lclavicle  0 -4.497500157e-015 -2.743230041e-014
lhumerus  -44.77560043 27.47430038 68.72949982
lradius  -0.4857701957 -6.507048965e-006 27.81030083
lwrist  4.824992743e-007 -3.790274832e-007 -30.78700066
lhand  -3.505795077e-031 -36.85160065 -10.81070042
lfingers  90 7.125020027 -90
lthumb  94.8221283 -25.64578056 101.0296326
rclavicle  0 -4.497500157e-015 -2.743230041e-014
rhumerus  -11.24569893 6.379639626 -75.94200134
rradius  -5.16745672e-007 2.214343908e-008 90.20110321
rwrist  1.129822067e-006 0.001802438172 -173.5160065
rhand  -2.997641028e-031 0.8987749815 -7.985960007
rfingers  -90 -7.125020027 -90
rthumb  -86.03725433 -7.908136368 -63.27498245
rfemur  -12.26651478 14.71927643 13.60554504
rtibia  -0.3709099591 0.7651377916 19.58128548
rfoot  0.001572045265 -18.84257507 -39.58630371
rtoes  4.143878937 19.58321762 -102.1972504
lfemur  -9.687314987 -16.96520805 -18.61488342
ltibia  2.499305725 1.502171874 14.54543018
lfoot  0.3646889925 -28.1192131 33.26624298
ltoes  -8.616026878 -18.11791229 -115.9776611
65
root  35.0261538 36.54838922 -14.51637689 10.28342247 1.131949544 2.739239216
lowerback  -8.581918716 0.9814499617 0.8302073479
upperback  -3.639260054 0.9329079986 -3.14496994
thorax  1.109300017 0.283021003 -3.636209965
lowerneck  -14.70489979 3.456089973 3.145889997
upperneck  11.19110012 3.232270002 4.374149799
head  5.780049801 1.998890042 1.169450045
lclavicle  0 -4.497500157e-015 -2.743230041e-014
lhumerus  -44.75310135 27.39529991 68.74759674
lradius  -0.486084193 -6.507048965e-006 27.7981987
lwrist  4.824992743e-007 -3.790274832e-007 -30.66110039
lhand  -3.505069867e-031 -36.85820007 -10.81849957
lfingers  90 7.125020027 -90
lthumb  94.82693481 -25.6531868 101.0375061
rclavicle  0 -4.497500157e-015 -2.743230041e-014
rhumerus  -9.602100372 6.743759632 -75.58550262
rradius  -5.16745672e-007 2.214343908e-008 90.61399841
rwrist  1.129822067e-006 0.001802438172 -173.6130066
rhand  -2.995263329e-031 0.784792006 -8.021730423
rfingers  -90 -7.125020027 -90
rthumb  -86.07594299 -7.86908102 -63.38810349
rfemur  -12.27944088 14.70038891 13.59877014
rtibia  -0.3668890893 0.7673000097 19.55344009
rfoot  -0.0003411752696 -18.81890678 -39.63103867
rtoes  4.168925285 19.57810211 -102.2719879
lfemur  -9.742669106 -16.95396233 -18.59232712
ltibia  2.492027998 1.531032562 14.56768227
lfoot  0.3648506701 -28.18354988 33.21220016
ltoes  -8.610946655 -18.12026405 -115.9613266
66
root  35.02571526 36.54884278 -14.51160401 10.32786369 1.182418108 2.738703489
lowerback  -8.555720329 0.9964310527 0.8176239133
upperback  -3.640939951 0.9540759921 -3.151819944
thorax  1.094490051 0.2936300039 -3.634330034
lowerneck  -14.71809959 3.429330111 3.232280016
upperneck  11.1782999 3.191740274 4.286719799
head  5.781529903 1.976490021 1.124449968
lclavicle  0 -4.497500157e-015 -2.743230041e-014
lhumerus  -44.74069977 27.36330032 68.7460022
lradius  -0.4863840342 -6.507048965e-006 27.80940247
lwrist  4.824992743e-007 -3.790274832e-007 -30.58989906
lhand  -3.505874185e-031 -36.86589813 -10.80770016
lfingers  90 7.125020027 -90
lthumb  94.82822418 -25.64226151 101.0446777
rclavicle  0 -4.497500157e-015 -2.743230041e-014
rhumerus  -7.920989513 7.20236063 -75.09279633
rradius  -5.16745672e-007 2.214343908e-008 90.92690277
rwrist  1.129822067e-006 0.001802438172 -173.8450012
rhand  -2.98352908e-031 0.9658859968 -8.196749687
rfingers  -90 -7.125020027 -90
rthumb  -86.1198349 -7.72416687 -63.22275543
rfemur  -12.31792736 14.67293644 13.59883022
rtibia  -0.3704428375 0.7780535221 19.55389023
rfoot  -0.002448747633 -18.78405571 -39.64785385
rtoes  4.16977644 19.57575035 -102.2745285
lfemur  -9.826559067 -17.00834465 -18.55915833
ltibia  2.467753649 1.505884886 14.61538982
lfoot  0.3416706324 -28.12807274 33.16152954
ltoes  -8.602015495 -18.12439537 -115.9326172
